<svg height="1182" width="720" xmlns="http://www.w3.org/2000/svg">
<rect height="1182" fill="#555" width="720"></rect>
<text fill="#7f7" font-family="Courier New" font-size="12" xml:space="preserve">
<tspan x="10" y="26">18 megabytes</tspan>
<tspan x="10" y="42">└─┬ markdown-to-html@0.0.13 </tspan>
<tspan x="10" y="58">  ├── gfm-linkify@0.1.0 </tspan>
<tspan x="10" y="74">  ├── marked@0.3.6 </tspan>
<tspan x="10" y="90">  ├── open@0.0.5 </tspan>
<tspan x="10" y="106">  ├─┬ pygmentize-bundled@2.3.0 </tspan>
<tspan x="10" y="122">  │ ├─┬ bl@0.4.2 </tspan>
<tspan x="10" y="138">  │ │ └─┬ readable-stream@1.0.34 </tspan>
<tspan x="10" y="154">  │ │   ├── core-util-is@1.0.2 </tspan>
<tspan x="10" y="170">  │ │   ├── inherits@2.0.3 </tspan>
<tspan x="10" y="186">  │ │   ├── isarray@0.0.1 </tspan>
<tspan x="10" y="202">  │ │   └── string_decoder@0.10.31 </tspan>
<tspan x="10" y="218">  │ └─┬ through2@0.2.3 </tspan>
<tspan x="10" y="234">  │   ├── readable-stream@1.1.14 </tspan>
<tspan x="10" y="250">  │   └─┬ xtend@2.1.2 </tspan>
<tspan x="10" y="266">  │     └── object-keys@0.4.0 </tspan>
<tspan x="10" y="282">  ├─┬ request@2.81.0 </tspan>
<tspan x="10" y="298">  │ ├── aws-sign2@0.6.0 </tspan>
<tspan x="10" y="314">  │ ├── aws4@1.6.0 </tspan>
<tspan x="10" y="330">  │ ├── caseless@0.12.0 </tspan>
<tspan x="10" y="346">  │ ├─┬ combined-stream@1.0.5 </tspan>
<tspan x="10" y="362">  │ │ └── delayed-stream@1.0.0 </tspan>
<tspan x="10" y="378">  │ ├── extend@3.0.0 </tspan>
<tspan x="10" y="394">  │ ├── forever-agent@0.6.1 </tspan>
<tspan x="10" y="410">  │ ├─┬ form-data@2.1.2 </tspan>
<tspan x="10" y="426">  │ │ └── asynckit@0.4.0 </tspan>
<tspan x="10" y="442">  │ ├─┬ har-validator@4.2.1 </tspan>
<tspan x="10" y="458">  │ │ ├─┬ ajv@4.11.5 </tspan>
<tspan x="10" y="474">  │ │ │ ├── co@4.6.0 </tspan>
<tspan x="10" y="490">  │ │ │ └─┬ json-stable-stringify@1.0.1 </tspan>
<tspan x="10" y="506">  │ │ │   └── jsonify@0.0.0 </tspan>
<tspan x="10" y="522">  │ │ └── har-schema@1.0.5 </tspan>
<tspan x="10" y="538">  │ ├─┬ hawk@3.1.3 </tspan>
<tspan x="10" y="554">  │ │ ├── boom@2.10.1 </tspan>
<tspan x="10" y="570">  │ │ ├── cryptiles@2.0.5 </tspan>
<tspan x="10" y="586">  │ │ ├── hoek@2.16.3 </tspan>
<tspan x="10" y="602">  │ │ └── sntp@1.0.9 </tspan>
<tspan x="10" y="618">  │ ├─┬ http-signature@1.1.1 </tspan>
<tspan x="10" y="634">  │ │ ├── assert-plus@0.2.0 </tspan>
<tspan x="10" y="650">  │ │ ├─┬ jsprim@1.4.0 </tspan>
<tspan x="10" y="666">  │ │ │ ├── assert-plus@1.0.0 </tspan>
<tspan x="10" y="682">  │ │ │ ├── extsprintf@1.0.2 </tspan>
<tspan x="10" y="698">  │ │ │ ├── json-schema@0.2.3 </tspan>
<tspan x="10" y="714">  │ │ │ └── verror@1.3.6 </tspan>
<tspan x="10" y="730">  │ │ └─┬ sshpk@1.11.0 </tspan>
<tspan x="10" y="746">  │ │   ├── asn1@0.2.3 </tspan>
<tspan x="10" y="762">  │ │   ├── assert-plus@1.0.0 </tspan>
<tspan x="10" y="778">  │ │   ├── bcrypt-pbkdf@1.0.1 </tspan>
<tspan x="10" y="794">  │ │   ├─┬ dashdash@1.14.1 </tspan>
<tspan x="10" y="810">  │ │   │ └── assert-plus@1.0.0 </tspan>
<tspan x="10" y="826">  │ │   ├── ecc-jsbn@0.1.1 </tspan>
<tspan x="10" y="842">  │ │   ├─┬ getpass@0.1.6 </tspan>
<tspan x="10" y="858">  │ │   │ └── assert-plus@1.0.0 </tspan>
<tspan x="10" y="874">  │ │   ├── jodid25519@1.0.2 </tspan>
<tspan x="10" y="890">  │ │   ├── jsbn@0.1.1 </tspan>
<tspan x="10" y="906">  │ │   └── tweetnacl@0.14.5 </tspan>
<tspan x="10" y="922">  │ ├── is-typedarray@1.0.0 </tspan>
<tspan x="10" y="938">  │ ├── isstream@0.1.2 </tspan>
<tspan x="10" y="954">  │ ├── json-stringify-safe@5.0.1 </tspan>
<tspan x="10" y="970">  │ ├─┬ mime-types@2.1.15 </tspan>
<tspan x="10" y="986">  │ │ └── mime-db@1.27.0 </tspan>
<tspan x="10" y="1002">  │ ├── oauth-sign@0.8.2 </tspan>
<tspan x="10" y="1018">  │ ├── performance-now@0.2.0 </tspan>
<tspan x="10" y="1034">  │ ├── qs@6.4.0 </tspan>
<tspan x="10" y="1050">  │ ├── safe-buffer@5.0.1 </tspan>
<tspan x="10" y="1066">  │ ├── stringstream@0.0.5 </tspan>
<tspan x="10" y="1082">  │ ├─┬ tough-cookie@2.3.2 </tspan>
<tspan x="10" y="1098">  │ │ └── punycode@1.4.1 </tspan>
<tspan x="10" y="1114">  │ ├── tunnel-agent@0.6.0 </tspan>
<tspan x="10" y="1130">  │ └── uuid@3.0.1 </tspan>
<tspan x="10" y="1146">  ├── tmp@0.0.24 </tspan>
<tspan x="10" y="1162">  └── yargs@1.3.3</tspan>
</text>
</svg>
